# xmcd
#
# Track frame offsets:
#	150
#	14176
#	27988
#	46756
#	71589
#	88912
#	105694
#	122055
#	137467
#	157905
#	171931
#	185743
#	204511
#	229344
#	246667
#	263449
#	279810
#	295222
#
# Disc length: 4208 seconds
#
# Revision: 1
# Processed by: cddbd v1.5.2PL0 Copyright (c) Steve Scherf et al.
# Submitted via: audiograbber 1.83.01
#
DISCID=06106e12
DTITLE=Pop Hits Monthly - PHM 0709-P
DYEAR=2007
DGENRE=karaoke
TTITLE0=The Way I Are - Timbaland/Ken Hilson
TTITLE1=Teenagers - My Chemical Romance
TTITLE2=Back To Black - Amy Winehouse
TTITLE3=Lovestoned - Justin Timberlake
TTITLE4=Sober - Kelly Clarkson
TTITLE5=Who Knew  - Pink
TTITLE6=Paralyzer - Finger Eleven
TTITLE7=Great Escape - Boys Like Girls
TTITLE8=All The Same - Sick Puppies
TTITLE9=The Way I Are - Timbaland/Ken Hilson (vocal)
TTITLE10=Teenagers - My Chemical Romance (vocal)
TTITLE11=Back To Black - Amy Winehouse (vocal)
TTITLE12=Lovestoned - Justin Timberlake (vocal)
TTITLE13=Sober - Kelly Clarkston (vocal)
TTITLE14=Who Knew - Pink (vocal)
TTITLE15=Paralyzer - Finger Eleven (vocal)
TTITLE16=Great Escape - Boys Like Girls (vocal)
TTITLE17=All The Same - Sick Puppies (vocal)
EXTD=
EXTT0=
EXTT1=
EXTT2=
EXTT3=
EXTT4=
EXTT5=
EXTT6=
EXTT7=
EXTT8=
EXTT9=
EXTT10=
EXTT11=
EXTT12=
EXTT13=
EXTT14=
EXTT15=
EXTT16=
EXTT17=
PLAYORDER=
